<?xml version="1.0" encoding="UTF-8"?>
<svg xmlns="http://www.w3.org/2000/svg" xmlns:xlink="http://www.w3.org/1999/xlink" width="320px" height="320px" viewBox="0 0 320 320" version="1.1">
<g id="surface1">
<rect x="0" y="0" width="320" height="320" style="fill:rgb(100%,100%,100%);fill-opacity:1;stroke:none;"/>
<path style=" stroke:none;fill-rule:nonzero;fill:rgb(19.215687%,18.431373%,19.607843%);fill-opacity:1;" d="M 93.941406 192.136719 C 94.515625 193.429688 94.910156 194.761719 95.515625 196.074219 C 97.679688 200.78125 100.152344 203.683594 103.554688 207.40625 C 101.054688 207.371094 100.257812 207.171875 98.003906 206.164062 C 101.554688 212.195312 103.476562 214.816406 108.964844 219.210938 C 106.273438 219.6875 104.820312 219.5625 102.277344 218.585938 C 104.328125 221.144531 106.296875 223.75 108.429688 226.246094 C 108.976562 226.890625 110.800781 228.59375 111 229.167969 L 110.761719 229.355469 C 107.570312 229.417969 104.464844 227.394531 101.675781 225.910156 C 103.53125 228.140625 107.492188 232.085938 109.671875 233.972656 C 114.617188 232.726562 119.808594 231.527344 124.445312 229.402344 C 124.167969 229.085938 123.90625 228.753906 123.664062 228.410156 C 119.363281 222.304688 123.917969 216.046875 129.300781 212.765625 C 140.34375 206.039062 153.328125 202.34375 165.972656 200.027344 C 172.3125 198.867188 179.054688 198.671875 185.476562 198.660156 C 188.507812 198.671875 193.832031 198.804688 196.71875 199.402344 C 194.4375 199.960938 191.902344 200.335938 189.488281 200.886719 C 178.152344 203.476562 165.761719 207.046875 156.519531 214.398438 C 155.6875 215.058594 154.21875 216.359375 154.132812 217.433594 C 154.601562 218.183594 156.53125 218.394531 157.402344 218.515625 C 166.035156 219.703125 174.710938 220.992188 183.039062 223.640625 C 186.855469 224.859375 190.527344 226.65625 194.328125 227.949219 C 195.414062 226.898438 197.375 225.054688 198.109375 223.847656 C 195.398438 225.527344 194.203125 226.210938 191.023438 225.703125 C 194.453125 222.960938 194.710938 222.429688 197.078125 218.753906 C 194.976562 219.136719 194.46875 219.078125 192.320312 218.707031 C 196.898438 214.746094 197.804688 213.660156 201.207031 208.734375 C 199.328125 209.117188 198.546875 209.113281 196.613281 209.042969 C 200.855469 205.378906 202.613281 201.632812 204.269531 196.253906 C 206.230469 202.535156 207.179688 204.644531 211.710938 209.207031 C 209.929688 209.140625 209.050781 209.101562 207.359375 208.574219 C 209.984375 212.992188 212.539062 215.566406 216.328125 218.84375 C 214.238281 219.15625 213.089844 219.035156 211.0625 218.636719 C 213.71875 222.1875 214.328125 223.148438 217.847656 225.710938 C 214.65625 226.160156 213.363281 225.019531 210.691406 223.417969 C 212.925781 226.398438 214.824219 229.0625 218.273438 230.539062 C 220.34375 228.539062 221.566406 227.160156 223.078125 224.742188 C 222.132812 224.992188 219.695312 225.632812 219.136719 224.65625 C 219.332031 224.171875 220.296875 223.359375 220.703125 222.960938 C 223.148438 220.558594 225.027344 218.054688 226.871094 215.171875 C 226.027344 215.417969 223.792969 216 223.019531 215.695312 C 223.355469 215.003906 225.300781 213.195312 225.8125 212.382812 C 227.78125 209.25 229.136719 206.152344 230.277344 202.671875 C 231.394531 206.234375 233.105469 210.546875 235.839844 213.207031 C 236.429688 213.78125 236.917969 214.222656 237.398438 214.894531 L 237.332031 215.078125 C 236.386719 215.347656 234.3125 214.902344 233.246094 214.722656 C 235.867188 218.980469 238.109375 221.453125 241.910156 224.636719 C 239.738281 225.058594 239.242188 225.054688 237.15625 224.328125 C 239.609375 227.507812 240.007812 228.660156 243.21875 231.542969 L 243.222656 231.773438 C 241.613281 232.726562 238.554688 230.730469 237.265625 229.808594 C 240.03125 233.757812 242.914062 235.609375 245.71875 238.847656 C 243.304688 239.859375 242.011719 239.847656 239.550781 239.378906 C 242.253906 241.046875 243.460938 241.515625 246.296875 243.59375 L 248.03125 241.3125 C 246.964844 241.460938 244.601562 241.871094 243.71875 241.328125 C 243.597656 240.710938 244.34375 240.375 244.917969 239.945312 C 247.5625 237.984375 249.785156 235.386719 251.589844 232.644531 C 250.132812 233.046875 249.28125 233.121094 247.804688 233.175781 C 251.226562 229.765625 252.929688 226.710938 254.550781 222.183594 C 256.476562 227.21875 257.085938 228.96875 260.566406 233.03125 C 258.847656 232.933594 258.261719 232.808594 256.667969 232.171875 C 259.117188 236.175781 261.242188 238.328125 264.808594 241.199219 C 262.746094 241.765625 262.105469 242.015625 260.054688 241.472656 C 260.90625 242.441406 261.773438 243.390625 262.660156 244.324219 C 264.195312 242.546875 266.007812 240.769531 267.480469 238.996094 C 269.023438 237.140625 270.238281 235.414062 271.886719 233.578125 C 270.386719 234.277344 265.34375 235.476562 264.183594 234.214844 C 264.246094 233.875 267.574219 231.296875 268.097656 230.796875 C 271.339844 227.699219 273.632812 224.316406 276.03125 220.570312 C 274.753906 221.125 271.765625 222.316406 270.519531 221.496094 C 270.53125 221.285156 274.046875 217.183594 274.5 216.558594 C 277.457031 212.472656 279.382812 208.273438 281.125 203.578125 C 282.742188 208.894531 284.722656 213.292969 288.304688 217.621094 C 289.386719 218.925781 290.554688 220.011719 291.605469 221.257812 L 291.710938 221.386719 C 289.109375 221.449219 287.6875 221 285.316406 219.984375 C 287.699219 223.957031 289.691406 227.042969 293.074219 230.320312 C 294.339844 231.546875 295.804688 232.582031 296.972656 233.769531 L 297.128906 233.929688 C 294.316406 234.699219 292.949219 234.378906 290.242188 233.539062 C 292.457031 236.09375 294.464844 239.222656 296.613281 241.882812 C 297.621094 243.128906 298.527344 243.800781 299.488281 244.925781 L 299.335938 245.125 C 296.320312 245.640625 293.355469 244.292969 290.738281 242.953125 C 292.214844 244.519531 293.8125 246.65625 295.359375 248.359375 C 298.878906 252.238281 302.09375 254.851562 306.261719 257.980469 C 300.398438 257.867188 293.378906 256.355469 287.457031 255.773438 C 285.230469 255.554688 283.820312 256.199219 281.65625 256.390625 C 280.117188 256.53125 278.144531 255.613281 276.746094 255.703125 C 272.660156 255.960938 268.226562 257.046875 264.203125 257.84375 C 265 258.605469 268.394531 261.714844 268.753906 262.515625 L 268.585938 262.707031 C 267.875 262.8125 267.644531 262.882812 267.050781 262.429688 C 265.777344 261.429688 264.589844 260.21875 263.363281 259.167969 C 258.945312 255.375 254.167969 252.261719 249.117188 249.410156 C 248.578125 249.109375 247.113281 247.511719 246.554688 246.984375 C 245.277344 245.78125 244.238281 245.074219 242.734375 244.132812 C 243.351562 245.3125 243.96875 246.652344 244.554688 247.859375 C 240.832031 244.324219 237.113281 242.261719 232.546875 240.097656 C 225.058594 236.691406 214.554688 234.324219 206.347656 234.957031 C 208.671875 236.972656 210.496094 237.242188 212.359375 240.179688 L 210.199219 238.929688 C 210.566406 239.542969 210.914062 240.199219 211.257812 240.828125 C 208.117188 239.996094 201.929688 235.828125 198.539062 234.136719 C 190.210938 229.984375 183.40625 227.507812 174.496094 225.144531 C 175.570312 226.332031 176.429688 227.320312 177.027344 228.839844 C 177.800781 230.824219 177.738281 233.042969 176.847656 234.976562 C 173.25 242.851562 156.0625 247.191406 148.210938 249.160156 C 125.851562 254.765625 104.078125 257.558594 82.453125 266.050781 C 85.085938 264.035156 89.023438 262.011719 92.027344 260.5625 C 103.675781 254.953125 115.726562 252.628906 128.21875 249.988281 C 134.972656 248.585938 141.691406 247.023438 148.371094 245.304688 C 153.269531 244.015625 158.585938 242.460938 163.226562 240.59375 C 167.484375 238.882812 176.066406 235.199219 172.964844 229.234375 C 170.898438 225.253906 165.351562 223.578125 161.046875 222.808594 C 157.972656 222.261719 148.082031 222.066406 150.144531 216.277344 C 153.175781 209.882812 161.882812 206.246094 168.164062 203.523438 C 157.753906 204.949219 138.242188 210.46875 129.929688 217.003906 C 121.09375 223.953125 129.402344 226.472656 128.824219 230.078125 C 128.691406 230.90625 128.15625 231.546875 127.503906 232.039062 C 124.992188 233.941406 116.503906 236.097656 113.203125 237.011719 C 107.867188 238.519531 102.511719 239.953125 97.136719 241.3125 C 83.28125 244.734375 69.632812 247.492188 56.859375 254.296875 C 51.398438 257.207031 46.132812 260.863281 40.996094 264.316406 C 41.898438 261.753906 43.21875 260.121094 45.078125 258.210938 C 41.738281 257.6875 39.617188 257.734375 36.25 257.945312 C 34.925781 257.921875 32.960938 257.144531 31.675781 257.339844 C 25.773438 258.242188 20.390625 258.847656 14.417969 259.046875 C 21.15625 253.933594 23.304688 251.671875 28.597656 245.113281 C 25.035156 246.769531 23.566406 246.992188 19.625 246.585938 C 23.46875 242.96875 25.480469 239.503906 28.6875 235.339844 C 25.226562 236.554688 24.660156 236.558594 21.101562 235.722656 C 26.367188 232.148438 30.1875 227.84375 32.964844 222.082031 C 30.289062 222.875 29.40625 223.058594 26.636719 222.984375 C 32.21875 217.871094 35.121094 211.679688 37.640625 204.710938 C 39.367188 210.339844 41.820312 215.816406 45.816406 220.222656 C 46.304688 220.757812 47.976562 222.476562 48.242188 223.011719 C 46.859375 223.660156 43.210938 222.179688 41.816406 221.617188 C 45.632812 228.621094 47.589844 230.890625 53.847656 235.882812 C 50.773438 237.253906 49.328125 236.773438 46.417969 235.351562 C 49.085938 239.152344 52.375 243.75 56.421875 245.9375 C 57.871094 244.984375 59.289062 243.6875 60.578125 242.515625 C 57.808594 243.835938 56.6875 244.023438 53.617188 243.859375 C 56.007812 241.308594 57.5 239.617188 59.632812 236.855469 C 58.773438 237.019531 55.933594 237.433594 55.460938 236.648438 C 55.625 236.25 57.996094 234.21875 58.476562 233.761719 C 60.746094 231.617188 62.179688 229.421875 63.554688 226.636719 C 61.921875 227.417969 61.082031 227.558594 59.28125 227.878906 C 62.839844 224.476562 64.144531 222.070312 66.085938 217.609375 C 68.601562 223.300781 68.511719 223.554688 72.613281 228.570312 C 71.089844 228.390625 70.238281 228.09375 68.835938 227.53125 C 70.277344 230.507812 73.128906 234.175781 76.117188 235.796875 C 79.113281 232.964844 83.5625 229.28125 85.859375 226.070312 C 82.308594 228.320312 80.140625 229.644531 75.867188 229.140625 C 79.179688 225.925781 82.253906 222.472656 85.0625 218.804688 C 83.722656 219.273438 79.734375 220.246094 78.820312 219.015625 C 78.855469 218.949219 82.761719 215.472656 83.242188 214.96875 C 85.773438 212.285156 87.988281 209.316406 89.84375 206.125 C 87.496094 207.21875 86.972656 207.4375 84.382812 207.359375 C 89.207031 202.253906 91.429688 198.8125 93.941406 192.136719 Z M 93.941406 192.136719 "/>
<path style=" stroke:none;fill-rule:nonzero;fill:rgb(100%,100%,100%);fill-opacity:1;" d="M 96.203125 237.429688 L 96.449219 237.480469 C 95.535156 237.886719 95.089844 237.855469 94.21875 238.121094 C 91.765625 238.867188 89.34375 239.394531 86.847656 239.96875 C 83.628906 240.738281 80.410156 241.527344 77.199219 242.335938 C 76.191406 241.597656 75.992188 241.25 75.316406 240.234375 C 74.753906 239.617188 74.148438 239.152344 73.507812 238.617188 C 77.296875 239.945312 77.589844 238.480469 80.933594 238.101562 C 82.894531 237.878906 85.738281 238.460938 87.902344 238.066406 C 88.617188 237.933594 90.488281 238.347656 91.304688 238.226562 C 92.914062 238.078125 94.359375 237.5625 95.980469 237.445312 Z M 96.203125 237.429688 "/>
<path style=" stroke:none;fill-rule:nonzero;fill:rgb(100%,100%,100%);fill-opacity:1;" d="M 271.125 242.984375 L 271.210938 243.066406 C 270.972656 244.097656 266.609375 248.292969 265.460938 249.074219 C 263.738281 248.707031 262.328125 248.484375 261.039062 247.167969 L 261.164062 247.128906 C 262.890625 247.773438 264.140625 247.753906 265.941406 247.675781 C 264.777344 246.648438 264.300781 246.296875 263.273438 245.09375 C 266.175781 245.398438 268.613281 244.3125 271.125 242.984375 Z M 271.125 242.984375 "/>
<path style=" stroke:none;fill-rule:nonzero;fill:rgb(100%,100%,100%);fill-opacity:1;" d="M 47.539062 245.550781 C 47.820312 245.617188 53.8125 248.148438 53.902344 248.226562 C 53.53125 248.46875 53.464844 248.457031 53.265625 248.835938 C 53.644531 249.679688 55.992188 249.15625 56.78125 249.632812 L 56.472656 249.824219 C 55.488281 250.390625 54.5 250.953125 53.507812 251.507812 C 51.449219 249.75 49.199219 247.695312 47.539062 245.550781 Z M 47.539062 245.550781 "/>
<path style=" stroke:none;fill-rule:nonzero;fill:rgb(100%,100%,100%);fill-opacity:1;" d="M 222.636719 230.8125 C 222.625 231.261719 220.992188 232.808594 220.546875 233.300781 C 219.347656 233.078125 218.113281 232.796875 216.917969 232.539062 L 216.472656 232.417969 L 216.476562 232.292969 C 217.824219 231.71875 220.527344 231.550781 222.636719 230.8125 Z M 222.636719 230.8125 "/>
<path style=" stroke:none;fill-rule:nonzero;fill:rgb(100%,100%,100%);fill-opacity:1;" d="M 72.171875 236.957031 C 73.027344 237.109375 73.710938 237.011719 74.433594 237.304688 L 74.519531 237.539062 L 74.128906 238.039062 L 73.71875 238.425781 C 73.042969 238.320312 72.609375 237.539062 72.171875 236.957031 Z M 72.171875 236.957031 "/>
<path style=" stroke:none;fill-rule:nonzero;fill:rgb(19.215687%,18.431373%,19.607843%);fill-opacity:1;" d="M 138.660156 46.132812 C 142.679688 45.90625 143.761719 50.621094 146.976562 52.625 C 148.921875 53.84375 151.820312 54.289062 153.304688 55.671875 C 155.5 57.71875 156.3125 61.722656 159.25 63.210938 C 160.085938 63.636719 161.5 64.0625 162.386719 64.398438 C 166.847656 66.082031 167.0625 71.90625 168.984375 75.535156 C 169.507812 76.527344 171.871094 77.667969 172.578125 78.609375 C 174.914062 81.742188 176.585938 86.1875 178.101562 89.804688 C 179.324219 88.917969 180.59375 88.101562 181.902344 87.355469 C 183.476562 86.464844 186.8125 84.863281 187.917969 83.734375 C 190.253906 81.347656 191.894531 77.472656 194.53125 75.324219 C 195.382812 74.632812 196.460938 74.441406 197.542969 74.585938 C 198.90625 74.769531 199.664062 76.472656 200.867188 77.300781 C 202.257812 78.257812 204.441406 78.175781 205.703125 79.234375 C 207.230469 80.511719 207.941406 83.140625 209.023438 84.808594 C 210.371094 86.894531 212.117188 88.550781 214.054688 90.070312 C 215.285156 91.039062 216.597656 91.90625 217.976562 92.660156 C 220.039062 93.789062 223.570312 95.144531 225.019531 96.824219 C 226.105469 98.085938 227.519531 100.890625 228.347656 102.4375 C 229.882812 105.308594 231.351562 108.058594 233.269531 110.714844 C 235.296875 113.515625 237.734375 115.914062 239.949219 118.566406 C 242.960938 122.238281 245.941406 125.941406 248.886719 129.671875 C 250.621094 131.847656 252.417969 133.949219 254.113281 136.160156 C 252.4375 135.816406 250.820312 135.5 249.171875 135.046875 C 244.433594 130.46875 240.191406 123.898438 235.839844 118.882812 C 233.675781 116.386719 231.011719 113.707031 229.195312 110.992188 C 226.683594 107.234375 225.183594 102.492188 222.53125 98.789062 C 222.171875 98.285156 219.421875 97.140625 218.605469 96.722656 C 214.480469 94.601562 209.644531 91.554688 206.867188 87.800781 C 206.316406 87.054688 205.554688 85.421875 205.269531 84.675781 C 203.835938 80.949219 202.46875 81.785156 199.441406 80.144531 C 198.6875 79.734375 197.738281 78.570312 196.625 78.132812 L 196.351562 78.296875 C 196.195312 78.855469 197.191406 80.652344 197.285156 81.550781 C 197.378906 82.453125 197.351562 82.863281 197.308594 83.761719 C 196.519531 85.175781 193.796875 87.058594 194.027344 88.242188 C 196.398438 90.25 204.152344 82.101562 204.21875 96.234375 C 202.957031 94.265625 202.078125 92.054688 200.84375 90 C 198.816406 90.21875 197.898438 90.375 196.179688 91.503906 C 196.722656 92.777344 197.453125 93.964844 198.152344 95.160156 C 196.433594 94.25 194.183594 92.210938 192.273438 92.546875 C 188.882812 93.140625 191.40625 99.183594 192.199219 100.980469 C 192.820312 102.390625 193.355469 103.367188 194.511719 104.199219 C 195.148438 103.105469 197.082031 98.703125 197.761719 98.441406 C 198.46875 99.394531 196.964844 103.285156 197.597656 105.109375 C 197.847656 105.28125 203.371094 105.464844 204.78125 105.785156 C 203.171875 106.5 197.847656 107.898438 197.410156 109.253906 C 197.777344 111.101562 204.277344 122.59375 205.554688 124.894531 C 198.503906 122.226562 189.09375 109.292969 184.609375 103.398438 C 181.160156 98.859375 177.4375 93.707031 174.289062 88.90625 C 172.679688 86.449219 172.050781 83.835938 170.535156 81.417969 C 169.585938 79.90625 167.160156 79.265625 166.277344 77.675781 C 164.820312 75.054688 164.230469 71.113281 162.464844 68.703125 C 160.964844 66.65625 158.175781 66.898438 156.007812 64.980469 C 153.601562 62.851562 153.066406 60.703125 151.261719 58.519531 C 150.132812 57.15625 146.675781 56.460938 144.839844 55.125 C 143.117188 53.867188 140.476562 50.3125 139.074219 49.410156 C 136.976562 49.816406 137.59375 51.496094 136.894531 53.035156 C 136.621094 53.632812 135.472656 54.738281 134.960938 55.253906 L 136.074219 56.664062 C 135.464844 58.425781 134.621094 59.839844 133.734375 61.480469 C 134.785156 63.617188 136.402344 65.3125 137.730469 67.238281 C 140.671875 71.503906 143.84375 75.441406 147.0625 79.476562 C 149.671875 82.742188 149.753906 88.257812 152.238281 91.6875 C 152.828125 92.5 153.457031 93.269531 154.179688 93.972656 C 156.746094 96.394531 159.484375 98.550781 161.953125 101.082031 C 165.550781 104.773438 168.726562 108.824219 172.183594 112.640625 C 174.632812 115.34375 177.378906 117.835938 179.992188 120.390625 C 174.871094 119.222656 170.589844 113.199219 166.324219 110.433594 C 162.292969 107.816406 156.550781 106.34375 152.132812 104.433594 C 147.613281 102.242188 143.328125 98.046875 142.097656 93.148438 C 141.039062 88.929688 140.164062 86.332031 138.425781 82.332031 C 141.019531 84.464844 143.09375 87.90625 145.015625 90.710938 C 146.355469 92.640625 147.714844 94.554688 149.097656 96.457031 C 150.828125 98.859375 151.914062 100.785156 154.757812 101.964844 C 153.46875 99.695312 150.546875 98.007812 149.152344 95.023438 C 146.832031 90.046875 146.308594 83.699219 144.226562 78.78125 C 142.496094 74.691406 137.488281 69.996094 133.226562 68.445312 C 131.375 70.296875 126.949219 73.996094 125.078125 76.082031 C 124.597656 76.621094 123.722656 79.535156 123.507812 80.28125 C 121.816406 86.21875 118.515625 91.902344 116.636719 97.710938 C 118.929688 95.652344 121 93.355469 122.808594 90.855469 C 124.652344 88.355469 126.113281 86.019531 128.289062 83.765625 C 126.507812 88.503906 122.488281 94.726562 119.371094 98.726562 C 117.429688 101.503906 113.578125 102.933594 111.375 105.1875 C 105.714844 110.980469 100.972656 117.34375 93.65625 121.328125 C 101.0625 113.554688 107.996094 105.347656 114.417969 96.742188 C 112.9375 97.75 110.714844 100.023438 109.347656 101.351562 L 101.835938 108.691406 C 104.386719 104.699219 105.382812 101.640625 106.171875 97.074219 C 103.421875 95.398438 100.859375 93.648438 98.015625 92.035156 C 95.753906 95.839844 93.632812 98.34375 91.4375 101.820312 C 92.414062 101.015625 93.691406 99.515625 94.601562 98.554688 C 96.082031 97 97.601562 95.480469 99.152344 94 C 98.613281 96.042969 97.8125 98.011719 96.765625 99.847656 C 93.503906 105.644531 89.917969 106.566406 85.703125 111.035156 C 77.347656 119.890625 74.503906 131.25 60.90625 133.382812 C 63.472656 130.875 64.933594 128.746094 65.710938 125.203125 C 64.820312 126 64.015625 127.144531 63.203125 127.980469 C 61.347656 129.886719 58.554688 133.054688 56.5625 134.660156 C 54.320312 136.464844 49.351562 136.523438 47.578125 139.738281 C 46.644531 141.429688 46.632812 142.746094 47.113281 144.507812 C 41.578125 150.257812 32.589844 158.265625 26.007812 163.0625 C 29.585938 158.523438 33.007812 153.730469 36.484375 149.101562 C 44.796875 138.035156 53.027344 126.761719 59.914062 114.75 C 60.433594 113.84375 63.128906 112.914062 63.867188 112.042969 C 65.660156 110.582031 66.894531 105.957031 69.847656 106.765625 C 72.441406 107.476562 75.21875 111.167969 77.09375 113.136719 C 78.964844 111.109375 80.75 108.828125 82.597656 106.816406 C 87.300781 101.707031 91.441406 96.777344 94.59375 90.546875 C 96.230469 87.300781 98.746094 89.621094 100.8125 91.117188 C 102.96875 89.46875 109.800781 82.425781 111.214844 79.925781 C 112.578125 77.519531 113.929688 74.105469 115.757812 71.535156 C 117.296875 69.363281 119.640625 68.0625 120.863281 66.082031 C 122.683594 63.132812 124.082031 59.800781 126.199219 56.988281 C 127.789062 54.878906 130.152344 54.378906 131.988281 52.628906 C 133.320312 51.355469 133.839844 49.660156 134.828125 48.164062 C 135.828125 46.65625 137.015625 46.417969 138.660156 46.132812 Z M 138.660156 46.132812 "/>
<path style=" stroke:none;fill-rule:nonzero;fill:rgb(100%,100%,100%);fill-opacity:1;" d="M 69.730469 109.734375 C 71.996094 111.324219 73.332031 114.046875 76.410156 116.296875 C 74.703125 120.242188 73.75 120.777344 71.097656 124.121094 C 70.246094 125.125 69 126.617188 67.925781 127.359375 C 69.074219 124.277344 68.539062 121.332031 68.882812 118.046875 C 69.167969 115.285156 69.535156 112.496094 69.730469 109.734375 Z M 69.730469 109.734375 "/>
<path style=" stroke:none;fill-rule:nonzero;fill:rgb(100%,100%,100%);fill-opacity:1;" d="M 122.769531 76.207031 C 122.800781 76.234375 122.828125 76.265625 122.855469 76.292969 C 123.792969 80.519531 116.640625 92.003906 114.363281 93.925781 L 114.203125 93.769531 C 114.230469 93.335938 115.804688 90.289062 116.136719 89.6875 C 118.464844 85.464844 119.929688 80.054688 122.769531 76.207031 Z M 122.769531 76.207031 "/>
<path style=" stroke:none;fill-rule:nonzero;fill:rgb(100%,100%,100%);fill-opacity:1;" d="M 118.824219 76.367188 C 118.855469 76.570312 118.875 76.707031 118.8125 76.917969 C 117.316406 82.117188 112.875 90.0625 108.546875 93.109375 C 108.445312 92.671875 108.675781 92.203125 108.921875 91.84375 C 112.414062 86.710938 115.695312 81.734375 118.824219 76.367188 Z M 118.824219 76.367188 "/>
<path style=" stroke:none;fill-rule:nonzero;fill:rgb(100%,100%,100%);fill-opacity:1;" d="M 63.667969 115.386719 C 63.878906 115.554688 63.773438 115.441406 63.929688 115.773438 C 63.25 120.332031 56.828125 128.800781 53.460938 132.023438 L 53.375 131.878906 C 54.089844 130.542969 56.367188 127.363281 57.324219 125.832031 C 58.519531 123.925781 59.691406 122.007812 60.847656 120.078125 C 61.542969 118.894531 62.898438 116.171875 63.667969 115.386719 Z M 63.667969 115.386719 "/>
<path style=" stroke:none;fill-rule:nonzero;fill:rgb(100%,100%,100%);fill-opacity:1;" d="M 191.222656 104.488281 C 191.484375 104.773438 193.46875 108.238281 193.671875 108.726562 C 194.796875 111.429688 198.777344 115.609375 199.59375 117.964844 L 199.066406 117.902344 C 196.320312 116.140625 192.296875 107.859375 191.222656 104.488281 Z M 191.222656 104.488281 "/>
<path style=" stroke:none;fill-rule:nonzero;fill:rgb(100%,100%,100%);fill-opacity:1;" d="M 129.949219 57.804688 C 130.078125 57.921875 130.011719 57.835938 130.035156 58.121094 C 127.285156 62.808594 126.257812 66.269531 122.34375 70.246094 C 122.3125 70.179688 122.28125 70.113281 122.246094 70.042969 C 123.136719 68.554688 124.074219 67.238281 124.957031 65.683594 C 126.675781 62.671875 127.4375 60.214844 129.949219 57.804688 Z M 129.949219 57.804688 "/>
<path style=" stroke:none;fill-rule:nonzero;fill:rgb(100%,100%,100%);fill-opacity:1;" d="M 185.753906 90.925781 C 185.964844 91.371094 185.273438 92.738281 185.183594 93.511719 C 185.003906 95.074219 186.148438 96.625 186.027344 98.164062 C 184.628906 95.238281 183.777344 93.800781 185.753906 90.925781 Z M 185.753906 90.925781 "/>
<path style=" stroke:none;fill-rule:nonzero;fill:rgb(19.215687%,18.431373%,19.607843%);fill-opacity:1;" d="M 110.320312 126.769531 L 111.570312 126.734375 C 113.15625 126.695312 115.777344 126.4375 116.921875 127.613281 C 117.460938 128.167969 117.429688 130.640625 117.429688 131.5 C 117.410156 141.976562 117.476562 152.476562 117.464844 162.949219 L 117.441406 172.347656 C 117.433594 174.632812 117.550781 177.699219 117.097656 179.851562 C 116 184.179688 110.835938 186.476562 106.703125 186.460938 C 104.621094 186.453125 102.644531 184.960938 102.429688 182.875 C 102.140625 179.742188 102.511719 176.515625 102.574219 173.367188 C 102.703125 166.457031 103.144531 159.5 103.289062 152.597656 C 98.453125 161.296875 93.375 169.964844 88.417969 178.601562 C 88.148438 179.074219 87.367188 180.132812 86.945312 180.414062 C 84.394531 182.144531 82.566406 180.628906 81.003906 178.554688 C 76.429688 172.558594 71.347656 166.972656 66.765625 161.015625 C 66.839844 167.40625 66.859375 173.800781 66.820312 180.195312 L 66.808594 188.878906 C 66.804688 190.285156 66.867188 192.707031 66.667969 194.007812 C 66.519531 195.027344 66.191406 196.011719 65.695312 196.917969 C 64.324219 199.433594 57.449219 205.882812 54.019531 203.941406 C 52.675781 203.179688 52.902344 198.878906 52.902344 197.171875 L 52.902344 189.476562 L 52.878906 159.804688 C 52.878906 155.316406 53.179688 147.542969 52.578125 143.4375 C 55.136719 141.820312 61.199219 139.085938 64.269531 139.300781 C 66.589844 139.460938 69.445312 142.789062 70.84375 144.570312 C 75.558594 150.578125 80.453125 156.492188 85.167969 162.503906 C 91.515625 151.953125 97.222656 140.683594 103.914062 130.335938 C 105.207031 128.335938 107.992188 127.039062 110.320312 126.769531 Z M 110.320312 126.769531 "/>
<path style=" stroke:none;fill-rule:nonzero;fill:rgb(19.215687%,18.431373%,19.607843%);fill-opacity:1;" d="M 213.296875 130.820312 L 213.476562 130.808594 C 216.421875 130.648438 222.746094 131.878906 224.980469 133.859375 C 227.308594 135.917969 226.914062 142.457031 226.953125 145.367188 C 227.015625 150.433594 227.046875 155.5 227.039062 160.5625 L 236.019531 152.316406 C 239.625 148.949219 243.484375 144.800781 247.554688 142.101562 C 250.078125 140.429688 254.621094 141.875 257.324219 142.660156 C 261.78125 143.949219 266.453125 145.214844 270.855469 146.773438 C 265.378906 147.632812 264.5 149.480469 260.378906 152.742188 L 249.984375 161.121094 C 247.96875 162.746094 244.75 165.195312 242.984375 166.960938 C 244.699219 170.441406 248.101562 175.589844 250.230469 179.144531 C 254.675781 186.46875 258.917969 193.917969 262.949219 201.480469 C 264.984375 205.425781 266.746094 208.699219 268.160156 212.902344 C 263.851562 210.839844 254.390625 205.46875 250.941406 202.429688 C 248.171875 199.988281 243.925781 191.691406 241.777344 187.9375 C 238.722656 182.515625 235.546875 177.164062 232.25 171.886719 C 230.671875 169.335938 228.765625 166.132812 227.019531 163.75 L 227.179688 181.015625 C 227.183594 183.878906 227.292969 186.988281 226.910156 189.832031 C 226.808594 190.582031 226.546875 191.640625 225.859375 192.042969 C 224.976562 192.5625 223.894531 192.445312 222.957031 192.148438 C 221.738281 191.769531 220.542969 191.292969 219.367188 190.816406 C 216.695312 189.734375 213.6875 188.398438 212.097656 185.859375 C 211.835938 185.445312 211.640625 183.238281 211.625 182.695312 C 211.3125 172.960938 211.445312 163.214844 211.378906 153.480469 C 211.335938 147.140625 211.140625 140.792969 211.164062 134.457031 C 211.164062 133.722656 211.273438 132.757812 211.582031 132.097656 C 211.96875 131.277344 212.496094 131.101562 213.296875 130.820312 Z M 213.296875 130.820312 "/>
<path style=" stroke:none;fill-rule:nonzero;fill:rgb(19.215687%,18.431373%,19.607843%);fill-opacity:1;" d="M 177.304688 126.9375 C 183.910156 125.746094 197.515625 129.410156 202 135.0625 C 203.015625 136.34375 198.777344 142.589844 197.246094 143.113281 C 196.25 143.453125 193.929688 141.902344 192.941406 141.351562 C 191.476562 140.519531 189.960938 139.777344 188.402344 139.132812 C 184.472656 137.515625 178.035156 135.613281 176.0625 140.992188 L 175.992188 141.1875 C 176.761719 145.257812 179.761719 146.648438 183.105469 148.40625 C 188.359375 151.171875 193.878906 152.8125 198.289062 156.949219 C 204.09375 162.390625 205.226562 172.085938 199.304688 177.878906 C 195.164062 182 189.621094 183.257812 183.964844 183.304688 C 176.503906 183.300781 167.710938 181.238281 161.472656 177.171875 C 158.171875 175.003906 160.03125 172.488281 161.496094 170.171875 C 164.96875 164.6875 165.394531 165.441406 170.085938 168.617188 C 173.792969 171.128906 183.980469 174.910156 187.335938 170.246094 C 192.144531 163.566406 177.929688 158.835938 173.972656 156.632812 C 168.226562 153.59375 161.964844 149.675781 161.1875 142.4375 C 160.8125 139.1875 161.753906 135.921875 163.804688 133.367188 C 167.164062 129.253906 172.15625 127.4375 177.304688 126.9375 Z M 177.304688 126.9375 "/>
<path style=" stroke:none;fill-rule:nonzero;fill:rgb(19.215687%,18.431373%,19.607843%);fill-opacity:1;" d="M 137.042969 125.363281 C 138.886719 125.300781 141 125.351562 142.792969 125.269531 C 149.878906 124.945312 149.117188 128.566406 149.132812 134.214844 L 149.105469 144.308594 C 149.082031 153.566406 149.097656 162.804688 149.070312 172.082031 C 149.039062 181.519531 144.953125 191.292969 136.042969 195.542969 C 133.09375 196.949219 130.007812 197.289062 126.757812 197.242188 C 124.085938 197.167969 114.226562 195.734375 115.257812 191.769531 C 115.351562 191.414062 119.695312 184.808594 120.457031 184.5625 C 121.425781 184.246094 124.945312 185.046875 126.75 184.554688 C 134.640625 182.394531 133.550781 172.292969 133.554688 166.007812 L 133.515625 154.765625 L 133.527344 135.484375 C 133.527344 131.71875 132.214844 126.058594 137.042969 125.363281 Z M 137.042969 125.363281 "/>
<path style=" stroke:none;fill-rule:nonzero;fill:rgb(19.215687%,18.431373%,19.607843%);fill-opacity:1;" d="M 139.589844 105.976562 C 152.585938 104.621094 155.25 117.941406 143.714844 119.871094 C 141.074219 120.261719 137.609375 119.996094 135.253906 118.570312 C 132.1875 116.710938 130.859375 112.730469 132.992188 109.625 C 134.53125 107.382812 136.996094 106.457031 139.589844 105.976562 Z M 139.589844 105.976562 "/>
<path style=" stroke:none;fill-rule:nonzero;fill:rgb(19.215687%,18.431373%,19.607843%);fill-opacity:1;" d="M 211.78125 97.898438 C 214.132812 98.851562 219.195312 106.375 220.734375 108.648438 C 223.894531 113.320312 227.332031 118.316406 231.191406 122.449219 C 234.875 126.398438 238.992188 130.050781 242.632812 134.082031 C 237.195312 132.859375 234.035156 130.789062 230.082031 126.890625 C 227.15625 123.914062 228.015625 123.707031 223.75 122.351562 C 220.59375 121.351562 216.304688 117.898438 214.332031 115.242188 C 213.242188 113.769531 211.308594 110.546875 211.269531 108.621094 L 211.480469 108.46875 C 212.195312 108.679688 213.011719 109.789062 213.492188 110.375 C 215.792969 113.171875 218.214844 115.929688 221.53125 117.542969 L 221.722656 117.632812 C 220.921875 116.308594 219.160156 113.042969 218.410156 111.628906 C 216.464844 107.960938 212.234375 101.765625 211.78125 97.898438 Z M 211.78125 97.898438 "/>
<path style=" stroke:none;fill-rule:nonzero;fill:rgb(19.215687%,18.431373%,19.607843%);fill-opacity:1;" d="M 267.359375 154.671875 C 267.574219 154.652344 268.121094 154.613281 268.289062 154.6875 C 269.804688 155.335938 272.328125 157.921875 273.4375 159.089844 C 276.484375 162.304688 279.960938 165.609375 282.835938 168.917969 C 285.882812 172.421875 288.886719 176.597656 291.6875 180.332031 C 292.652344 181.617188 295.351562 185.242188 296.015625 186.476562 L 295.953125 186.679688 L 295.621094 186.601562 C 293.597656 185.074219 289.792969 180.960938 288.023438 179.097656 L 278.367188 169.105469 L 270.941406 161.679688 C 269.550781 160.28125 267.980469 158.835938 266.8125 157.265625 C 265.9375 156.09375 266.269531 155.382812 267.359375 154.671875 Z M 267.359375 154.671875 "/>
<path style=" stroke:none;fill-rule:nonzero;fill:rgb(19.215687%,18.431373%,19.607843%);fill-opacity:1;" d="M 148.449219 61.375 C 149.175781 61.746094 157.90625 71.136719 158.902344 72.300781 C 161.117188 74.878906 164.636719 82.585938 165.996094 85.875 C 165.523438 85.355469 165.148438 84.882812 164.714844 84.335938 C 162.207031 80.546875 159.214844 75.597656 155.5625 72.949219 C 155.332031 73.757812 155.132812 74.996094 154.972656 75.855469 C 153.003906 72.796875 149.871094 64.773438 148.449219 61.375 Z M 148.449219 61.375 "/>
<path style=" stroke:none;fill-rule:nonzero;fill:rgb(19.215687%,18.431373%,19.607843%);fill-opacity:1;" d="M 261.4375 159.308594 C 262.503906 159.609375 263.230469 160.273438 264.125 160.882812 C 271.78125 166.097656 278.035156 172.640625 284.253906 179.433594 L 284.238281 179.707031 C 279.957031 176.265625 276.152344 172.507812 271.554688 169.277344 C 268.976562 167.304688 266.03125 165.917969 263.402344 164.027344 C 261.847656 162.910156 260.714844 161.234375 261.4375 159.308594 Z M 261.4375 159.308594 "/>
</g>
</svg>
