<?xml version="1.0" encoding="utf-8" ?><svg xmlns="http://www.w3.org/2000/svg" xmlns:xlink="http://www.w3.org/1999/xlink" width="1024" height="1024" viewBox="0 0 1024 1024"><path fill="white" d="M0 0L1024 0L1024 1024L0 1024L0 0Z"/><path fill="#312F32" d="M300.609 614.836C302.456 618.971 303.717 623.239 305.649 627.439C312.577 642.501 320.489 651.793 331.376 663.695C323.376 663.584 320.819 662.951 313.617 659.723C324.971 679.025 331.127 687.412 348.686 701.472C340.072 702.998 335.422 702.6 327.287 699.473C333.851 707.661 340.152 716.003 346.971 723.99C348.729 726.049 354.558 731.506 355.203 733.34L354.442 733.937C344.221 734.138 334.285 727.664 325.368 722.912C331.304 730.046 343.976 742.681 350.949 748.716C366.77 744.723 383.384 740.887 398.22 734.086C397.332 733.073 396.499 732.013 395.725 730.911C381.966 711.371 396.536 691.35 413.757 680.856C449.098 659.32 490.648 647.496 531.111 640.089C551.396 636.376 572.977 635.747 593.522 635.707C603.222 635.75 620.265 636.169 629.497 638.093C622.198 639.88 614.084 641.076 606.361 642.841C570.085 651.129 530.44 662.548 500.865 686.069C498.203 688.186 493.506 692.352 493.224 695.782C494.731 698.19 500.905 698.863 503.687 699.245C531.311 703.045 559.077 707.173 585.723 715.655C597.938 719.544 609.686 725.3 621.854 729.439C625.319 726.075 631.605 720.176 633.945 716.308C625.275 721.693 621.445 723.881 611.275 722.252C622.253 713.473 623.076 711.77 630.655 700.008C623.929 701.239 622.299 701.045 615.428 699.865C630.077 687.186 632.979 683.711 643.858 667.948C637.854 669.175 635.344 669.161 629.158 668.939C642.732 657.213 648.363 645.227 653.663 628.014C659.933 648.116 662.975 654.859 677.479 669.468C671.781 669.253 668.962 669.126 663.547 667.436C671.956 681.577 680.126 689.816 692.247 700.306C685.559 701.303 681.89 700.91 675.397 699.634C683.903 710.999 685.847 714.08 697.111 722.28C686.894 723.718 682.765 720.067 674.217 714.942C681.358 724.473 687.44 733.001 698.473 737.722C705.094 731.324 709.017 726.91 713.849 719.176C710.829 719.98 703.031 722.023 701.232 718.905C701.862 717.356 704.949 714.751 706.254 713.47C714.074 705.788 720.091 697.775 725.986 688.554C723.292 689.34 716.139 691.196 713.668 690.22C714.738 688.017 720.958 682.229 722.599 679.622C728.906 669.605 733.233 659.686 736.89 648.555C740.468 659.95 745.933 673.755 754.684 682.265C756.569 684.099 758.138 685.507 759.676 687.661L759.465 688.252C756.439 689.113 749.799 687.684 746.393 687.114C754.77 700.736 761.95 708.644 774.117 718.837C767.161 720.188 765.577 720.176 758.898 717.849C766.751 728.021 768.03 731.711 778.306 740.938L778.308 741.672C773.159 744.724 763.372 738.334 759.256 735.388C768.097 748.023 777.322 753.946 786.299 764.316C778.569 767.55 774.441 767.512 766.567 766.015C775.21 771.345 779.07 772.845 788.146 779.496L793.702 772.206C790.284 772.672 782.719 773.983 779.904 772.247C779.509 770.274 781.895 769.197 783.734 767.831C792.196 761.548 799.313 753.233 805.084 744.458C800.43 745.748 797.701 745.99 792.969 746.164C803.921 735.244 809.373 725.471 814.567 710.985C820.725 727.106 822.679 732.706 833.809 745.701C828.315 745.384 826.434 744.991 821.333 742.956C829.17 755.762 835.981 762.647 847.382 771.838C840.79 773.649 838.741 774.452 832.176 772.718C834.899 775.81 837.679 778.851 840.514 781.839C845.423 776.153 851.228 770.46 855.94 764.788C860.872 758.852 864.758 753.32 870.033 747.45C865.236 749.693 849.104 753.53 845.393 749.485C845.584 748.401 856.24 740.154 857.914 738.554C868.282 728.641 875.623 717.818 883.298 705.827C879.211 707.594 869.647 711.41 865.665 708.79C865.694 708.112 876.954 694.982 878.399 692.988C887.868 679.917 894.028 666.477 899.599 651.451C904.779 668.458 911.111 682.533 922.574 696.385C926.035 700.567 929.774 704.04 933.132 708.028L933.474 708.438C925.144 708.639 920.595 707.204 913.007 703.946C920.633 716.665 927.007 726.532 937.832 737.022C941.89 740.954 946.578 744.268 950.313 748.064L950.808 748.572C941.812 751.036 937.439 750.01 928.777 747.32C935.86 755.496 942.286 765.513 949.161 774.021C952.386 778.012 955.282 780.166 958.364 783.766L957.871 784.404C948.224 786.049 938.733 781.732 930.358 777.446C935.086 782.464 940.205 789.303 945.147 794.749C956.411 807.161 966.701 815.524 980.038 825.535C961.276 825.181 938.809 820.341 919.865 818.477C912.735 817.776 908.227 819.832 901.301 820.455C896.379 820.897 890.067 817.967 885.591 818.25C872.507 819.074 858.327 822.554 845.45 825.101C848.001 827.539 858.864 837.492 860.018 840.045L859.469 840.665C857.197 840.995 856.458 841.228 854.561 839.77C850.482 836.572 846.683 832.698 842.76 829.332C828.626 817.202 813.341 807.241 797.17 798.117C795.452 797.147 790.761 792.035 788.971 790.35C784.885 786.504 781.557 784.241 776.754 781.222C778.728 784.997 780.698 789.29 782.573 793.155C770.659 781.836 758.767 775.241 744.151 768.317C720.186 757.41 686.569 749.833 660.315 751.865C667.754 758.315 673.586 759.177 679.553 768.577L672.632 764.572C673.808 766.532 674.926 768.64 676.031 770.65C665.98 767.989 646.171 754.645 635.32 749.234C608.677 735.948 586.905 728.023 558.382 720.467C561.831 724.263 564.57 727.427 566.486 732.289C568.968 738.643 568.759 745.734 565.908 751.931C554.4 777.131 499.398 791.015 474.27 797.315C402.73 815.249 333.048 824.185 263.85 851.363C272.278 844.917 284.878 838.434 294.493 833.803C331.764 815.854 370.32 808.412 410.297 799.963C431.91 795.476 453.413 790.478 474.789 784.972C490.457 780.849 507.473 775.874 522.32 769.904C535.948 764.423 563.413 752.642 553.487 733.546C546.87 720.816 529.131 715.444 515.352 712.99C505.51 711.236 473.862 710.608 480.462 692.086C490.159 671.626 518.02 659.987 538.131 651.277C504.808 655.842 442.377 673.497 415.769 694.417C387.494 716.647 414.093 724.715 412.242 736.252C411.818 738.899 410.095 740.945 408.016 742.519C399.969 748.609 372.812 755.511 362.255 758.443C345.179 763.264 328.038 767.852 310.836 772.205C266.503 783.145 222.819 791.979 181.949 813.75C164.479 823.057 147.626 834.759 131.19 845.816C134.077 837.618 138.303 832.384 144.25 826.278C133.565 824.597 126.781 824.745 115.999 825.422C111.767 825.35 105.471 822.858 101.362 823.486C82.475 826.371 65.2519 828.315 46.136 828.951C67.6995 812.586 74.5728 805.346 91.5064 784.366C80.108 789.662 75.4111 790.377 62.801 789.081C75.0998 777.5 81.5379 766.413 91.7994 753.088C80.7305 756.973 78.9096 756.989 67.5249 754.313C84.3723 742.881 96.6039 729.104 105.488 710.662C96.9209 713.196 94.0956 713.788 85.2403 713.554C103.098 697.188 112.386 677.372 120.448 655.078C125.978 673.09 133.825 690.61 146.613 704.707C148.174 706.428 153.52 711.928 154.376 713.633C149.945 715.714 138.274 710.981 133.817 709.175C146.029 731.591 152.283 738.847 172.317 754.819C162.476 759.212 157.853 757.677 148.537 753.129C157.079 765.29 167.599 780.001 180.546 786.995C185.187 783.947 189.724 779.802 193.847 776.056C184.993 780.274 181.401 780.872 171.571 780.354C179.224 772.184 183.999 766.779 190.831 757.942C188.079 758.466 178.984 759.782 177.475 757.278C177.994 755.998 185.589 749.5 187.129 748.043C194.383 741.179 198.981 734.145 203.38 725.239C198.145 727.741 195.457 728.19 189.694 729.215C201.089 718.323 205.257 710.622 211.477 696.349C219.528 714.562 219.233 715.375 232.364 731.424C227.491 730.85 224.759 729.905 220.275 728.102C224.882 737.631 234.015 749.361 243.576 754.553C253.16 745.485 267.406 733.701 274.756 723.426C263.392 730.62 256.454 734.858 242.771 733.253C253.373 722.962 263.207 711.908 272.194 700.18C267.916 701.679 255.152 704.786 252.22 700.853C252.339 700.638 264.838 689.514 266.372 687.904C274.477 679.312 281.566 669.815 287.5 659.602C279.993 663.097 278.31 663.794 270.021 663.552C285.463 647.21 292.57 636.202 300.609 614.836Z"/><path fill="white" d="M307.848 759.773L308.636 759.935C305.714 761.243 304.286 761.141 301.505 761.986C293.65 764.375 285.898 766.065 277.917 767.904C267.608 770.366 257.314 772.888 247.036 775.47C243.807 773.118 243.179 771.996 241.007 768.747C239.21 766.77 237.281 765.282 235.228 763.581C247.353 767.821 248.283 763.139 258.991 761.922C265.262 761.208 274.359 763.081 281.286 761.808C283.572 761.388 289.559 762.714 292.173 762.326C297.329 761.854 301.955 760.206 307.137 759.821L307.848 759.773Z"/><path fill="white" d="M867.599 777.554L867.869 777.813C867.118 781.113 853.155 794.543 849.471 797.038C843.96 795.863 839.451 795.154 835.331 790.941L835.726 790.808C841.256 792.869 845.25 792.812 851.017 792.561C847.288 789.278 845.76 788.145 842.474 784.306C851.767 785.271 859.564 781.798 867.599 777.554Z"/><path fill="white" d="M152.127 785.768C153.028 785.978 172.2 794.077 172.482 794.323C171.299 795.103 171.093 795.062 170.451 796.274C171.659 798.973 179.181 797.294 181.7 798.826L180.714 799.442C177.562 801.255 174.399 803.048 171.223 804.819C164.641 799.204 157.44 792.623 152.127 785.768Z"/><path fill="white" d="M712.432 738.602C712.398 740.043 707.176 744.983 705.749 746.563C701.912 745.851 697.961 744.949 694.134 744.13L692.716 743.734L692.719 743.338C697.035 741.498 705.687 740.967 712.432 738.602Z"/><path fill="white" d="M230.946 758.263C233.687 758.748 235.875 758.434 238.184 759.381L238.458 760.124L237.216 761.723L235.895 762.966C233.733 762.627 232.345 760.122 230.946 758.263Z"/><path fill="#312F32" d="M443.709 147.622C456.57 146.897 460.042 161.982 470.325 168.405C476.556 172.297 485.831 173.726 490.573 178.147C497.599 184.696 500.199 197.518 509.601 202.277C512.277 203.632 516.794 204.999 519.642 206.073C533.913 211.458 534.6 230.095 540.746 241.711C542.428 244.891 549.992 248.532 552.246 251.554C559.724 261.581 565.079 275.802 569.925 287.375C573.834 284.542 577.895 281.923 582.088 279.532C587.129 276.691 597.804 271.561 601.333 267.955C608.808 260.316 614.064 247.914 622.504 241.042C625.222 238.829 628.678 238.207 632.135 238.672C636.496 239.258 638.923 244.708 642.769 247.358C647.228 250.43 654.214 250.165 658.255 253.547C663.142 257.636 665.418 266.055 668.871 271.392C673.185 278.06 678.78 283.368 684.97 288.22C688.918 291.326 693.116 294.099 697.52 296.513C704.124 300.122 715.43 304.463 720.063 309.838C723.538 313.87 728.064 322.85 730.71 327.798C735.627 336.99 740.319 345.793 746.461 354.284C752.947 363.251 760.75 370.931 767.834 379.415C777.48 391.168 787.013 403.013 796.433 414.948C801.988 421.908 807.732 428.641 813.157 435.715C807.801 434.612 802.622 433.6 797.344 432.145C782.186 417.503 768.615 396.47 754.69 380.423C747.758 372.434 739.234 363.864 733.422 355.17C725.388 343.149 720.582 327.981 712.098 316.131C710.954 314.511 702.153 310.856 699.537 309.511C686.337 302.726 670.865 292.974 661.979 280.966C660.209 278.574 657.775 273.344 656.858 270.96C652.274 259.04 647.905 261.712 638.217 256.459C635.804 255.151 632.768 251.425 629.203 250.019L628.319 250.556C627.82 252.334 631.012 258.084 631.31 260.958C631.609 263.853 631.526 265.161 631.386 268.037C628.865 272.566 620.152 278.588 620.893 282.371C628.481 288.799 653.286 262.725 653.499 307.947C649.461 301.644 646.653 294.578 642.7 287.995C636.209 288.699 633.28 289.206 627.77 292.812C629.514 296.889 631.854 300.683 634.089 304.517C628.587 301.605 621.391 295.079 615.271 296.15C604.423 298.049 612.502 317.384 615.034 323.139C617.022 327.656 618.738 330.77 622.435 333.432C624.469 329.934 630.663 315.846 632.834 315.007C635.094 318.063 630.289 330.516 632.312 336.356C633.113 336.901 650.793 337.491 655.305 338.507C650.148 340.794 633.118 345.277 631.716 349.614C632.882 355.52 653.684 392.301 657.775 399.665C635.215 391.125 605.095 349.737 590.755 330.875C579.715 316.353 567.801 299.858 557.729 284.498C552.573 276.637 550.568 268.278 545.711 260.537C542.676 255.7 534.91 253.651 532.084 248.564C527.423 240.175 525.539 227.568 519.884 219.849C515.087 213.3 506.164 214.08 499.227 207.943C491.525 201.13 489.813 194.25 484.035 187.265C480.428 182.906 469.364 180.678 463.49 176.395C457.974 172.373 449.521 161.005 445.034 158.115C438.326 159.413 440.304 164.792 438.06 169.71C437.188 171.622 433.513 175.164 431.872 176.814L435.442 181.327C433.487 186.959 430.793 191.491 427.956 196.738C431.313 203.574 436.485 209.005 440.733 215.162C450.148 228.807 460.295 241.407 470.603 254.319C478.952 264.777 479.214 282.427 487.162 293.394C489.05 296 491.061 298.457 493.38 300.715C501.59 308.463 510.349 315.36 518.25 323.465C529.766 335.279 539.924 348.24 550.985 360.453C558.822 369.105 567.618 377.07 575.972 385.248C559.584 381.507 545.886 362.238 532.24 353.385C519.339 345.016 500.966 340.296 486.822 334.188C472.368 327.176 458.656 313.751 454.717 298.075C451.323 284.571 448.521 276.26 442.958 263.458C451.264 270.289 457.901 281.302 464.044 290.276C468.333 296.451 472.688 302.58 477.107 308.662C482.653 316.348 486.127 322.509 495.223 326.285C491.096 319.029 481.746 313.619 477.293 304.075C469.865 288.156 468.184 267.836 461.522 252.096C455.982 239.007 439.965 223.99 426.32 219.02C420.395 224.951 406.237 236.788 400.252 243.461C398.708 245.182 395.91 254.511 395.229 256.902C389.814 275.899 379.245 294.084 373.234 312.672C380.58 306.085 387.202 298.734 392.988 290.741C398.885 282.735 403.566 275.264 410.522 268.052C404.825 283.213 391.96 303.127 381.988 315.926C375.777 324.813 363.45 329.39 356.401 336.605C338.29 355.143 323.108 375.496 299.701 388.249C323.404 363.381 345.591 337.111 366.141 309.581C361.398 312.803 354.285 320.069 349.913 324.322L325.877 347.812C334.033 335.041 337.226 325.256 339.753 310.64C330.945 305.271 322.748 299.679 313.653 294.509C306.408 306.691 299.627 314.697 292.595 325.819C295.731 323.249 299.814 318.448 302.724 315.373C307.464 310.402 312.32 305.541 317.286 300.796C315.566 307.342 312.997 313.634 309.646 319.514C299.212 338.061 287.736 341.008 274.25 355.308C247.517 383.651 238.41 420.001 194.904 426.819C203.117 418.799 207.784 411.992 210.278 400.652C207.42 403.194 204.851 406.861 202.253 409.534C196.315 415.642 187.371 425.769 180.997 430.907C173.827 436.687 157.925 436.874 152.248 447.161C149.262 452.571 149.219 456.787 150.76 462.422C133.05 480.831 104.285 506.456 83.2211 521.801C94.6725 507.276 105.624 491.932 116.75 477.123C143.353 441.713 169.684 405.638 191.721 367.195C193.385 364.294 202.007 361.33 204.372 358.538C210.113 353.867 214.068 339.068 223.514 341.65C231.814 343.919 240.704 355.742 246.702 362.043C252.686 355.544 258.395 348.247 264.314 341.814C279.359 325.464 292.613 309.692 302.695 289.749C307.943 279.368 315.987 286.787 322.602 291.57C329.506 286.305 351.367 263.761 355.89 255.761C360.245 248.059 364.577 237.139 370.419 228.909C375.352 221.96 382.849 217.804 386.765 211.459C392.587 202.025 397.059 191.357 403.836 182.368C408.93 175.611 416.485 174.007 422.358 168.408C426.625 164.339 428.288 158.912 431.454 154.125C434.647 149.298 438.444 148.535 443.709 147.622Z"/><path fill="white" d="M223.142 351.151C230.388 356.233 234.666 364.953 244.516 372.153C239.051 384.769 236.006 386.492 227.511 397.186C224.789 400.399 220.794 405.178 217.357 407.545C221.041 397.683 219.331 388.264 220.42 377.756C221.336 368.914 222.509 359.989 223.142 351.151Z"/><path fill="white" d="M392.867 243.863C392.958 243.953 393.05 244.044 393.141 244.134C396.143 257.666 373.245 294.412 365.959 300.558L365.454 300.061C365.543 298.67 370.575 288.919 371.632 287.004C379.093 273.493 383.774 256.177 392.867 243.863Z"/><path fill="white" d="M380.234 244.376C380.338 245.024 380.394 245.466 380.201 246.141C375.415 262.779 361.194 288.195 347.354 297.953C347.02 296.555 347.765 295.044 348.544 293.9C359.727 277.469 370.22 261.549 380.234 244.376Z"/><path fill="white" d="M203.741 369.242C204.413 369.772 204.075 369.407 204.578 370.476C202.401 385.059 181.85 412.157 171.08 422.479L170.804 422.018C173.086 417.733 180.37 407.563 183.435 402.663C187.258 396.563 191.018 390.424 194.716 384.248C196.938 380.464 201.269 371.754 203.741 369.242Z"/><path fill="white" d="M611.917 334.364C612.756 335.278 619.097 346.362 619.748 347.925C623.351 356.573 636.083 369.949 638.697 377.488L637.011 377.291C628.227 371.653 615.345 345.153 611.917 334.364Z"/><path fill="white" d="M415.842 184.98C416.253 185.35 416.042 185.074 416.114 185.987C407.31 200.982 404.021 212.065 391.498 224.791C391.396 224.575 391.294 224.358 391.193 224.141C394.035 219.375 397.033 215.167 399.865 210.192C405.359 200.544 407.806 192.69 415.842 184.98Z"/><path fill="white" d="M594.412 290.964C595.087 292.393 592.879 296.76 592.591 299.237C592.009 304.239 595.677 309.204 595.283 314.122C590.813 304.765 588.092 300.163 594.412 290.964Z"/><path fill="#312F32" d="M353.022 405.66L357.02 405.553C362.095 405.426 370.491 404.599 374.145 408.361C375.874 410.141 375.775 418.046 375.77 420.803C375.716 454.329 375.926 487.927 375.887 521.442L375.815 551.515C375.789 558.826 376.167 568.632 374.714 575.531C371.203 589.381 354.67 596.73 341.45 596.679C334.786 596.654 328.465 591.873 327.769 585.206C326.852 575.171 328.043 564.851 328.234 554.771C328.651 532.663 330.061 510.399 330.531 488.314C315.049 516.15 298.797 543.883 282.939 571.524C282.072 573.036 279.575 576.42 278.23 577.331C270.062 582.866 264.207 578.015 259.218 571.378C244.574 552.188 228.314 534.31 213.646 515.247C213.884 535.705 213.946 556.165 213.831 576.625L213.79 604.415C213.779 608.916 213.971 616.659 213.337 620.823C212.866 624.086 211.814 627.239 210.231 630.132C205.838 638.184 183.841 658.819 172.858 652.608C168.564 650.18 169.289 636.41 169.283 630.948L169.29 606.321L169.207 511.375C169.209 497.008 170.18 472.14 168.252 458.994C176.44 453.83 195.833 445.078 205.661 445.758C213.091 446.272 222.23 456.919 226.703 462.622C241.782 481.848 257.451 500.772 272.537 520.016C292.845 486.254 311.107 450.188 332.522 417.08C336.661 410.681 345.581 406.529 353.022 405.66Z"/><path fill="#312F32" d="M682.553 418.626L683.129 418.59C692.555 418.081 712.786 422.012 719.939 428.345C727.39 434.942 726.128 455.861 726.255 465.171C726.456 481.382 726.547 497.594 726.529 513.806L755.261 487.407C766.794 476.642 779.151 463.362 792.175 454.73C800.248 449.378 814.783 454 823.439 456.507C837.704 460.638 852.656 464.692 866.743 469.679C849.217 472.431 846.402 478.337 833.208 488.77L799.953 515.592C793.503 520.783 783.206 528.621 777.549 534.271C783.04 545.413 793.919 561.885 800.738 573.257C814.966 596.701 828.538 620.537 841.438 644.737C847.956 657.36 853.582 667.836 858.109 681.292C844.323 674.691 814.045 657.499 803.015 647.777C794.148 639.961 780.562 613.408 773.689 601.404C763.915 584.052 753.749 566.925 743.199 550.035C738.155 541.876 732.048 531.627 726.46 524.003L726.971 579.246C726.984 588.416 727.333 598.359 726.107 607.467C725.784 609.865 724.944 613.255 722.748 614.543C719.927 616.197 716.461 615.819 713.457 614.879C709.563 613.664 705.736 612.133 701.972 610.611C693.428 607.155 683.8 602.876 678.71 594.75C677.877 593.419 677.25 586.36 677.195 584.625C676.202 553.476 676.623 522.292 676.407 491.132C676.274 470.846 675.656 450.54 675.723 430.26C675.73 427.908 676.075 424.819 677.064 422.713C678.295 420.091 679.991 419.525 682.553 418.626Z"/><path fill="#312F32" d="M567.376 406.204C588.515 402.386 632.052 414.109 646.397 432.194C649.651 436.296 636.083 456.284 631.193 457.958C628.001 459.052 620.575 454.084 617.408 452.321C612.721 449.657 607.872 447.288 602.89 445.229C590.307 440.044 569.712 433.962 563.394 451.177L563.172 451.801C565.636 464.82 575.238 469.273 585.941 474.906C602.747 483.751 620.408 489 634.525 502.237C653.098 519.653 656.719 550.674 637.778 569.215C624.531 582.404 606.79 586.419 588.692 586.574C564.807 586.562 536.673 579.967 516.718 566.951C506.154 560.015 512.101 551.959 516.791 544.551C527.9 527.006 529.259 529.412 544.27 539.579C556.132 547.613 588.735 559.708 599.474 544.786C614.857 523.412 569.369 508.273 556.717 501.231C538.33 491.503 518.289 478.966 515.803 455.802C514.604 445.396 517.617 434.944 524.17 426.773C534.929 413.611 550.903 407.799 567.376 406.204Z"/><path fill="#312F32" d="M438.534 401.167C444.443 400.958 451.197 401.12 456.936 400.858C479.617 399.824 477.174 411.409 477.225 429.487L477.135 461.783C477.066 491.407 477.113 520.978 477.02 550.661C476.925 580.866 463.844 612.143 435.336 625.736C425.901 630.234 416.024 631.322 405.625 631.178C397.077 630.933 365.528 626.35 368.829 613.666C369.127 612.522 383.026 591.384 385.46 590.596C388.564 589.592 399.821 592.152 405.596 590.573C430.855 583.664 427.361 551.335 427.375 531.22L427.248 495.249L427.292 433.547C427.285 421.501 423.091 403.386 438.534 401.167Z"/><path fill="#312F32" d="M446.685 339.127C488.273 334.793 496.794 377.408 459.882 383.585C451.439 384.832 440.347 383.993 432.81 379.426C422.994 373.48 418.755 360.742 425.581 350.799C430.502 343.63 438.389 340.658 446.685 339.127Z"/><path fill="#312F32" d="M677.701 313.269C685.223 316.327 701.423 340.398 706.345 347.674C716.458 362.624 727.465 378.615 739.81 391.841C751.602 404.476 764.781 416.168 776.422 429.059C759.027 425.149 748.912 418.531 736.263 406.045C726.905 396.527 729.644 395.863 716.003 391.531C705.898 388.322 692.173 377.273 685.864 368.77C682.373 364.064 676.192 353.751 676.059 347.591L676.736 347.096C679.023 347.777 681.639 351.33 683.176 353.198C690.541 362.15 698.291 370.981 708.899 376.133L709.517 376.427C706.951 372.186 701.318 361.742 698.915 357.212C692.687 345.476 679.148 325.647 677.701 313.269Z"/><path fill="#312F32" d="M855.55 494.949C856.233 494.888 857.99 494.767 858.525 494.997C863.379 497.073 871.449 505.345 874.994 509.082C884.754 519.37 895.879 529.956 905.078 540.534C914.828 551.746 924.436 565.11 933.402 577.06C936.486 581.17 945.126 592.78 947.254 596.727L947.051 597.371L945.993 597.126C939.514 592.235 927.342 579.075 921.681 573.107L890.774 541.14L867.017 517.369C862.566 512.906 857.543 508.271 853.796 503.246C851.005 499.503 852.066 497.221 855.55 494.949Z"/><path fill="#312F32" d="M475.032 196.397C477.367 197.591 505.301 227.643 508.492 231.363C515.569 239.611 526.84 264.272 531.187 274.799C529.674 273.141 528.478 271.626 527.091 269.877C519.067 257.746 509.489 241.907 497.804 233.442C497.06 236.024 496.428 239.985 495.912 242.743C489.614 232.954 479.582 207.27 475.032 196.397Z"/><path fill="#312F32" d="M836.604 509.788C840.008 510.755 842.336 512.88 845.199 514.83C869.702 531.517 889.708 552.455 909.617 574.185L909.558 575.065C895.861 564.051 883.682 552.023 868.976 541.682C860.726 535.373 851.3 530.933 842.888 524.888C837.916 521.314 834.287 515.954 836.604 509.788Z"/></svg>